<svg xmlns="http://www.w3.org/2000/svg" viewBox="0 0 600 400">
  <defs>
    <linearGradient id="bg2" x1="0%" y1="0%" x2="100%" y2="100%">
      <stop offset="0%" stop-color="#0f0f1a"/>
      <stop offset="50%" stop-color="#1a1a2e"/>
      <stop offset="100%" stop-color="#0f0f1a"/>
    </linearGradient>
    <linearGradient id="card" x1="0%" y1="0%" x2="100%" y2="100%">
      <stop offset="0%" stop-color="#ffffff" stop-opacity="0.06"/>
      <stop offset="100%" stop-color="#ffffff" stop-opacity="0.02"/>
    </linearGradient>
    <linearGradient id="accentLine" x1="0%" y1="0%" x2="100%" y2="0%">
      <stop offset="0%" stop-color="#6366f1" stop-opacity="0.6"/>
      <stop offset="100%" stop-color="#8b5cf6" stop-opacity="0.2"/>
    </linearGradient>
  </defs>
  <rect width="600" height="400" fill="url(#bg2)"/>
  <rect x="120" y="80" width="360" height="240" rx="8" fill="url(#card)" stroke="#ffffff" stroke-opacity="0.06" stroke-width="1"/>
  <rect x="120" y="80" width="360" height="4" rx="2" fill="url(#accentLine)"/>
  <rect x="150" y="110" width="200" height="14" rx="2" fill="#ffffff" fill-opacity="0.08"/>
  <rect x="150" y="132" width="140" height="10" rx="2" fill="#ffffff" fill-opacity="0.04"/>
  <rect x="150" y="160" width="60" height="60" rx="4" fill="#6366f1" fill-opacity="0.15"/>
  <rect x="220" y="165" width="120" height="8" rx="2" fill="#ffffff" fill-opacity="0.06"/>
  <rect x="220" y="180" width="80" height="6" rx="2" fill="#ffffff" fill-opacity="0.04"/>
  <rect x="150" y="235" width="300" height="1" fill="#ffffff" fill-opacity="0.05"/>
  <rect x="150" y="255" width="280" height="6" rx="2" fill="#ffffff" fill-opacity="0.04"/>
  <rect x="150" y="270" width="260" height="6" rx="2" fill="#ffffff" fill-opacity="0.03"/>
  <rect x="150" y="285" width="240" height="6" rx="2" fill="#ffffff" fill-opacity="0.03"/>
  <rect x="150" y="310" width="100" height="6" rx="2" fill="#6366f1" fill-opacity="0.2"/>
  <circle cx="450" cy="140" r="20" fill="none" stroke="#ffffff" stroke-opacity="0.05" stroke-width="1"/>
  <circle cx="450" cy="140" r="12" fill="none" stroke="#ffffff" stroke-opacity="0.03" stroke-width="1"/>
  <circle cx="450" cy="140" r="5" fill="#6366f1" fill-opacity="0.15"/>
</svg>
